<svg width="69" height="62" viewBox="0 0 69 62" fill="none" xmlns="http://www.w3.org/2000/svg">
<path d="M36 5L65.7405 56.5121" stroke="#DC1C33" stroke-width="6" stroke-linecap="round"/>
<path d="M32 58.7941L35.9961 12" stroke="#F1F5F9" stroke-width="2" stroke-linecap="round"/>
<path d="M32.0039 59L36 12.2059" stroke="#FFD5C3" stroke-linecap="round"/>
<path d="M28 58.7941L35.9921 12" stroke="#F1F5F9" stroke-width="2" stroke-linecap="round"/>
<path d="M28.0078 59L35.9999 12.2059" stroke="#FFD5C3" stroke-linecap="round"/>
<path d="M24 58.7941L35.9882 12" stroke="#F1F5F9" stroke-width="2" stroke-linecap="round"/>
<path d="M24.012 59L36.0002 12.2059" stroke="#FFB290" stroke-linecap="round"/>
<path d="M20 58.7941L35.9843 12" stroke="#F1F5F9" stroke-width="2" stroke-linecap="round"/>
<path d="M20.0159 59L36.0001 12.2059" stroke="#FF8754" stroke-linecap="round"/>
<path d="M16 58.7941L35.9803 12" stroke="#F1F5F9" stroke-width="2" stroke-linecap="round"/>
<path d="M16.0198 59L36.0001 12.2059" stroke="#FF8754" stroke-linecap="round"/>
<path d="M12 58.7941L35.9764 12" stroke="#F1F5F9" stroke-width="2" stroke-linecap="round"/>
<path d="M12.0237 59L36.0001 12.2059" stroke="#FF7033" stroke-linecap="round"/>
<path d="M6 56.5293L35.9705 5.00001" stroke="#F1F5F9" stroke-width="10" stroke-linecap="round"/>
<path d="M6.02954 56.7561L36 5.22678" stroke="#F65915" stroke-width="6" stroke-linecap="round"/>
</svg>
