<svg width="57" height="52" viewBox="0 0 57 52" fill="none" xmlns="http://www.w3.org/2000/svg">
<path d="M30.104 5L53.9998 46.3887" stroke="#DC1C33" stroke-width="6" stroke-linecap="round"/>
<path d="M26.8901 48.2222L30.1009 10.6243" stroke="#0F172A" stroke-width="2" stroke-linecap="round"/>
<path d="M26.8936 48.3876L30.1043 10.7898" stroke="#FFD5C3" stroke-linecap="round"/>
<path d="M23.6763 48.2222L30.0977 10.6243" stroke="#0F172A" stroke-width="2" stroke-linecap="round"/>
<path d="M23.6826 48.3876L30.1041 10.7898" stroke="#FFD5C3" stroke-linecap="round"/>
<path d="M20.4624 48.2222L30.0946 10.6243" stroke="#0F172A" stroke-width="2" stroke-linecap="round"/>
<path d="M20.4722 48.3876L30.1044 10.7898" stroke="#FFB290" stroke-linecap="round"/>
<path d="M17.2485 48.2222L30.0915 10.6243" stroke="#0F172A" stroke-width="2" stroke-linecap="round"/>
<path d="M17.2612 48.3876L30.1042 10.7898" stroke="#FF8754" stroke-linecap="round"/>
<path d="M14.0347 48.2222L30.0884 10.6243" stroke="#0F172A" stroke-width="2" stroke-linecap="round"/>
<path d="M14.0503 48.3876L30.104 10.7898" stroke="#FF8754" stroke-linecap="round"/>
<path d="M10.8208 48.2222L30.0852 10.6243" stroke="#0F172A" stroke-width="2" stroke-linecap="round"/>
<path d="M10.8398 48.3876L30.1043 10.7898" stroke="#FF7033" stroke-linecap="round"/>
<path d="M6 46.4025L30.0805 5" stroke="#0F172A" stroke-width="10" stroke-linecap="round"/>
<path d="M6.02344 46.5847L30.104 5.18222" stroke="#F65915" stroke-width="6" stroke-linecap="round"/>
</svg>
