<svg width="155" height="52" viewBox="0 0 155 52" fill="none" xmlns="http://www.w3.org/2000/svg">
<path d="M79.6296 36.024H73.3416L72.3336 39H68.0376L74.1336 22.152H78.8856L84.9816 39H80.6376L79.6296 36.024ZM78.5736 32.856L76.4856 26.688L74.4216 32.856H78.5736ZM86.0209 32.304C86.0209 30.912 86.3009 29.696 86.8609 28.656C87.4369 27.616 88.2289 26.816 89.2369 26.256C90.2609 25.696 91.4289 25.416 92.7409 25.416C94.4209 25.416 95.8209 25.856 96.9409 26.736C98.0769 27.616 98.8209 28.856 99.1729 30.456H94.8049C94.4369 29.432 93.7249 28.92 92.6689 28.92C91.9169 28.92 91.3169 29.216 90.8689 29.808C90.4209 30.384 90.1969 31.216 90.1969 32.304C90.1969 33.392 90.4209 34.232 90.8689 34.824C91.3169 35.4 91.9169 35.688 92.6689 35.688C93.7249 35.688 94.4369 35.176 94.8049 34.152H99.1729C98.8209 35.72 98.0769 36.952 96.9409 37.848C95.8049 38.744 94.4049 39.192 92.7409 39.192C91.4289 39.192 90.2609 38.912 89.2369 38.352C88.2289 37.792 87.4369 36.992 86.8609 35.952C86.3009 34.912 86.0209 33.696 86.0209 32.304ZM100.552 32.28C100.552 30.904 100.808 29.696 101.32 28.656C101.848 27.616 102.56 26.816 103.456 26.256C104.352 25.696 105.352 25.416 106.456 25.416C107.4 25.416 108.224 25.608 108.928 25.992C109.648 26.376 110.2 26.88 110.584 27.504V25.608H114.688V39H110.584V37.104C110.184 37.728 109.624 38.232 108.904 38.616C108.2 39 107.376 39.192 106.432 39.192C105.344 39.192 104.352 38.912 103.456 38.352C102.56 37.776 101.848 36.968 101.32 35.928C100.808 34.872 100.552 33.656 100.552 32.28ZM110.584 32.304C110.584 31.28 110.296 30.472 109.72 29.88C109.16 29.288 108.472 28.992 107.656 28.992C106.84 28.992 106.144 29.288 105.568 29.88C105.008 30.456 104.728 31.256 104.728 32.28C104.728 33.304 105.008 34.12 105.568 34.728C106.144 35.32 106.84 35.616 107.656 35.616C108.472 35.616 109.16 35.32 109.72 34.728C110.296 34.136 110.584 33.328 110.584 32.304ZM116.841 32.28C116.841 30.904 117.097 29.696 117.609 28.656C118.137 27.616 118.849 26.816 119.745 26.256C120.641 25.696 121.641 25.416 122.745 25.416C123.625 25.416 124.425 25.6 125.145 25.968C125.881 26.336 126.457 26.832 126.873 27.456V21.24H130.977V39H126.873V37.08C126.489 37.72 125.937 38.232 125.217 38.616C124.513 39 123.689 39.192 122.745 39.192C121.641 39.192 120.641 38.912 119.745 38.352C118.849 37.776 118.137 36.968 117.609 35.928C117.097 34.872 116.841 33.656 116.841 32.28ZM126.873 32.304C126.873 31.28 126.585 30.472 126.009 29.88C125.449 29.288 124.761 28.992 123.945 28.992C123.129 28.992 122.433 29.288 121.857 29.88C121.297 30.456 121.017 31.256 121.017 32.28C121.017 33.304 121.297 34.12 121.857 34.728C122.433 35.32 123.129 35.616 123.945 35.616C124.761 35.616 125.449 35.32 126.009 34.728C126.585 34.136 126.873 33.328 126.873 32.304ZM133.13 32.28C133.13 30.904 133.386 29.696 133.898 28.656C134.426 27.616 135.138 26.816 136.034 26.256C136.93 25.696 137.93 25.416 139.034 25.416C139.978 25.416 140.802 25.608 141.506 25.992C142.226 26.376 142.778 26.88 143.162 27.504V25.608H147.266V39H143.162V37.104C142.762 37.728 142.202 38.232 141.482 38.616C140.778 39 139.954 39.192 139.01 39.192C137.922 39.192 136.93 38.912 136.034 38.352C135.138 37.776 134.426 36.968 133.898 35.928C133.386 34.872 133.13 33.656 133.13 32.28ZM143.162 32.304C143.162 31.28 142.874 30.472 142.298 29.88C141.738 29.288 141.05 28.992 140.234 28.992C139.418 28.992 138.722 29.288 138.146 29.88C137.586 30.456 137.306 31.256 137.306 32.28C137.306 33.304 137.586 34.12 138.146 34.728C138.722 35.32 139.418 35.616 140.234 35.616C141.05 35.616 141.738 35.32 142.298 34.728C142.874 34.136 143.162 33.328 143.162 32.304Z" fill="#0F172A"/>
<path d="M30.1042 5L54 46.3887" stroke="#DC1C33" stroke-width="6" stroke-linecap="round"/>
<path d="M26.8905 48.2222L30.1013 10.6243" stroke="#F1F5F9" stroke-width="2" stroke-linecap="round"/>
<path d="M26.8937 48.3876L30.1044 10.7898" stroke="#FFD5C3" stroke-linecap="round"/>
<path d="M23.6766 48.2222L30.0981 10.6243" stroke="#F1F5F9" stroke-width="2" stroke-linecap="round"/>
<path d="M23.6829 48.3876L30.1044 10.7898" stroke="#FFD5C3" stroke-linecap="round"/>
<path d="M20.4627 48.2222L30.0949 10.6243" stroke="#F1F5F9" stroke-width="2" stroke-linecap="round"/>
<path d="M20.4721 48.3876L30.1043 10.7898" stroke="#FFB290" stroke-linecap="round"/>
<path d="M17.2487 48.2222L30.0917 10.6243" stroke="#F1F5F9" stroke-width="2" stroke-linecap="round"/>
<path d="M17.2613 48.3876L30.1042 10.7898" stroke="#FF8754" stroke-linecap="round"/>
<path d="M14.0348 48.2222L30.0885 10.6243" stroke="#F1F5F9" stroke-width="2" stroke-linecap="round"/>
<path d="M14.0505 48.3876L30.1042 10.7898" stroke="#FF8754" stroke-linecap="round"/>
<path d="M10.8209 48.2222L30.0853 10.6243" stroke="#F1F5F9" stroke-width="2" stroke-linecap="round"/>
<path d="M10.8397 48.3876L30.1041 10.7898" stroke="#FF7033" stroke-linecap="round"/>
<path d="M6 46.4025L30.0805 5" stroke="#F1F5F9" stroke-width="10" stroke-linecap="round"/>
<path d="M6.02354 46.5847L30.1041 5.18219" stroke="#F65915" stroke-width="6" stroke-linecap="round"/>
</svg>
